<svg width="101" height="110" viewBox="0 0 101 110" fill="none" xmlns="http://www.w3.org/2000/svg">
<circle cx="50.0692" cy="60" r="50" fill="#0190B9"/>
<path d="M26 41L50 60.0187L74 41M26 79.0374H74V41H26V79.0374Z" stroke="white" stroke-width="4" stroke-linecap="round" stroke-linejoin="round"/>
<circle cx="84" cy="16" r="15" fill="#40CC6F" stroke="white" stroke-width="2"/>
<path d="M88.9739 23H79.6575V21.7012L84.5793 16.2324C85.3085 15.4056 85.8098 14.735 86.0833 14.2207C86.3632 13.6999 86.5032 13.1628 86.5032 12.6094C86.5032 11.8672 86.2786 11.2585 85.8293 10.7832C85.3801 10.3079 84.7812 10.0703 84.0325 10.0703C83.134 10.0703 82.4342 10.3275 81.9329 10.8418C81.4381 11.3496 81.1907 12.0592 81.1907 12.9707H79.384C79.384 11.6621 79.804 10.6042 80.6438 9.79688C81.4902 8.98958 82.6197 8.58594 84.0325 8.58594C85.3541 8.58594 86.399 8.93424 87.1672 9.63086C87.9355 10.321 88.3196 11.2422 88.3196 12.3945C88.3196 13.7943 87.4277 15.4609 85.6438 17.3945L81.8352 21.5254H88.9739V23Z" fill="white"/>
</svg>
