<svg width="101" height="110" viewBox="0 0 101 110" fill="none" xmlns="http://www.w3.org/2000/svg">
<circle cx="50.0692" cy="60" r="50" fill="#0190B9"/>
<path d="M50 54.8162C49.3635 54.8162 48.753 55.0693 48.3029 55.5198C47.8529 55.9704 47.6 56.5814 47.6 57.2185V64.4255C47.6 65.0626 47.8529 65.6737 48.3029 66.1242C48.753 66.5747 49.3635 66.8278 50 66.8278C50.6365 66.8278 51.247 66.5747 51.6971 66.1242C52.1471 65.6737 52.4 65.0626 52.4 64.4255V57.2185C52.4 56.5814 52.1471 55.9704 51.6971 55.5198C51.247 55.0693 50.6365 54.8162 50 54.8162ZM66.8 38H33.2C31.2904 38 29.4591 38.7593 28.1088 40.1109C26.7586 41.4624 26 43.2955 26 45.2069V69.2301C26 71.1415 26.7586 72.9746 28.1088 74.3262C29.4591 75.6778 31.2904 76.4371 33.2 76.4371H61.016L69.896 85.3497C70.1203 85.5723 70.3862 85.7485 70.6786 85.868C70.971 85.9876 71.2841 86.0482 71.6 86.0463C71.9148 86.0544 72.2272 85.9886 72.512 85.8541C72.9503 85.6739 73.3255 85.3679 73.5903 84.9746C73.8551 84.5813 73.9976 84.1183 74 83.644V45.2069C74 43.2955 73.2414 41.4624 71.8912 40.1109C70.5409 38.7593 68.7096 38 66.8 38ZM69.2 77.8544L63.704 72.3291C63.4797 72.1065 63.2138 71.9303 62.9214 71.8107C62.629 71.6912 62.3159 71.6306 62 71.6324H33.2C32.5635 71.6324 31.953 71.3793 31.5029 70.9288C31.0529 70.4783 30.8 69.8672 30.8 69.2301V45.2069C30.8 44.5698 31.0529 43.9588 31.5029 43.5083C31.953 43.0577 32.5635 42.8046 33.2 42.8046H66.8C67.4365 42.8046 68.047 43.0577 68.4971 43.5083C68.9471 43.9588 69.2 44.5698 69.2 45.2069V77.8544ZM50 47.6093C49.5253 47.6093 49.0613 47.7502 48.6666 48.0141C48.272 48.2781 47.9643 48.6533 47.7827 49.0923C47.601 49.5312 47.5535 50.0142 47.6461 50.4803C47.7387 50.9463 47.9673 51.3743 48.3029 51.7103C48.6386 52.0462 49.0662 52.275 49.5318 52.3677C49.9973 52.4604 50.4799 52.4129 50.9184 52.231C51.357 52.0492 51.7318 51.7413 51.9955 51.3462C52.2592 50.9512 52.4 50.4867 52.4 50.0116C52.4 49.3744 52.1471 48.7634 51.6971 48.3129C51.247 47.8624 50.6365 47.6093 50 47.6093Z" fill="white"/>
<circle cx="84" cy="16" r="15" fill="#40CC6F" stroke="white" stroke-width="2"/>
<path d="M82.2844 15.0117H83.6418C84.4947 14.9987 85.1653 14.7741 85.6536 14.3379C86.1418 13.9017 86.386 13.3125 86.386 12.5703C86.386 10.9036 85.5559 10.0703 83.8958 10.0703C83.1145 10.0703 82.4895 10.2949 82.0208 10.7441C81.5585 11.1868 81.3274 11.776 81.3274 12.5117H79.5208C79.5208 11.3854 79.9309 10.4512 80.7512 9.70898C81.578 8.96029 82.6262 8.58594 83.8958 8.58594C85.2369 8.58594 86.2883 8.94076 87.05 9.65039C87.8118 10.36 88.1926 11.3464 88.1926 12.6094C88.1926 13.2279 87.9908 13.8268 87.5872 14.4062C87.19 14.9857 86.6464 15.4186 85.9563 15.7051C86.7375 15.9525 87.3398 16.3626 87.7629 16.9355C88.1926 17.5085 88.4075 18.2083 88.4075 19.0352C88.4075 20.3112 87.9908 21.3236 87.1575 22.0723C86.3241 22.821 85.2402 23.1953 83.9055 23.1953C82.5709 23.1953 81.4836 22.834 80.6438 22.1113C79.8105 21.3887 79.3938 20.4349 79.3938 19.25H81.2102C81.2102 19.9987 81.4543 20.5977 81.9426 21.0469C82.4309 21.4961 83.0852 21.7207 83.9055 21.7207C84.7779 21.7207 85.4452 21.4928 85.9075 21.0371C86.3697 20.5814 86.6008 19.9271 86.6008 19.0742C86.6008 18.2474 86.3469 17.6126 85.8391 17.1699C85.3313 16.7272 84.5989 16.4993 83.6418 16.4863H82.2844V15.0117Z" fill="white"/>
</svg>
