<svg width="101" height="110" viewBox="0 0 101 110" fill="none" xmlns="http://www.w3.org/2000/svg">
<circle cx="50.0692" cy="60" r="50" fill="#0190B9"/>
<path d="M46.5271 77.0922C51.0815 77.0912 55.5046 75.5651 59.0922 72.7569L70.3718 84.047L74 80.4155L62.7204 69.1254C65.5275 65.5341 67.0531 61.1059 67.0541 56.5461C67.0541 45.2175 57.8452 36 46.5271 36C35.209 36 26 45.2175 26 56.5461C26 67.8747 35.209 77.0922 46.5271 77.0922ZM46.5271 41.1365C55.0176 41.1365 61.9224 48.0477 61.9224 56.5461C61.9224 65.0444 55.0176 71.9556 46.5271 71.9556C38.0366 71.9556 31.1318 65.0444 31.1318 56.5461C31.1318 48.0477 38.0366 41.1365 46.5271 41.1365Z" fill="white"/>
<circle cx="84" cy="16" r="15" fill="#40CC6F" stroke="white" stroke-width="2"/>
<path d="M85.0039 23H83.1875V10.959L79.5449 12.2969V10.6562L84.7207 8.71289H85.0039V23Z" fill="white"/>
</svg>
