<svg width="300" height="60" viewBox="0 0 300 60" fill="none" xmlns="http://www.w3.org/2000/svg">
<path d="M101.901 46.3435C101.901 54.9689 96.9299 59.5009 88.4504 59.5009C79.6784 59.5009 74.4153 55.4075 74.4153 46.3435V24.5605H78.9474V46.3435C78.9474 52.3374 82.4562 55.6999 88.4504 55.6999C94.1521 55.6999 97.3685 52.3374 97.3685 46.3435V24.5605H101.901V46.3435Z" fill="#ffffff"/>
<path d="M109.064 24.5605H113.889L131.871 52.1912H132.018V24.5605H136.257V58.6237H131.287L113.45 31.2855V58.6237H109.064V24.5605Z" fill="#ffffff"/>
<path d="M143.714 24.5605H155.41C165.936 24.5605 171.784 29.8235 171.784 40.7881C171.784 52.1912 166.813 58.6237 155.41 58.6237H143.714V24.5605ZM148.246 54.9689H155.848C158.918 54.9689 167.252 54.0917 167.252 41.519C167.252 33.3322 164.181 28.5078 155.848 28.5078H148.246V54.9689Z" fill="#ffffff"/>
<path d="M191.813 23.8295C202.632 23.8295 208.187 32.4549 208.187 41.6651C208.187 50.8754 202.632 59.5008 191.813 59.5008C180.994 59.5008 175.439 50.8754 175.439 41.6651C175.439 32.4549 180.994 23.8295 191.813 23.8295ZM191.813 55.6998C200.146 55.6998 203.655 48.5363 203.655 41.6651C203.655 34.794 200.146 27.6305 191.813 27.6305C183.48 27.6305 179.971 34.794 179.971 41.6651C179.971 48.5363 183.48 55.6998 191.813 55.6998Z" fill="#ffffff"/>
<path d="M220.76 30.8469H210.526V24.5605H238.45V30.8469H228.216V58.6237H220.76V30.8469Z" fill="#0090BA"/>
<path d="M242.398 24.5605H267.982V30.8469H250V38.1566H266.52V44.0044H250V52.3374H268.421V58.6237H242.544V24.5605H242.398Z" fill="#0090BA"/>
<path d="M278.509 47.3667C278.509 51.8988 282.018 53.6531 286.111 53.6531C288.743 53.6531 292.69 52.9221 292.69 49.4135C292.69 45.7586 287.573 45.1738 282.602 43.7119C277.485 42.3962 272.368 40.3494 272.368 34.0631C272.368 27.0458 278.947 23.6833 285.088 23.6833C292.251 23.6833 298.83 26.7534 298.83 34.6479H291.52C291.228 30.5545 288.304 29.5311 284.795 29.5311C282.456 29.5311 279.678 30.5544 279.678 33.3321C279.678 35.9636 281.287 36.256 289.912 38.4489C292.398 39.0337 300 40.6418 300 48.3901C300 54.6765 295.029 59.3547 285.819 59.3547C278.216 59.3547 271.199 55.6998 271.345 47.2205H278.509V47.3667Z" fill="#0090BA"/>
<path d="M18.2749 58.7699H25.5849V48.2439L18.2749 45.6124V58.7699Z" fill="#ffffff"/>
<path d="M63.7428 58.7699H56.4329V48.2439L63.7428 45.6124V58.7699Z" fill="#ffffff"/>
<path d="M41.0819 0L0 15.058L41.0819 30.116L82.0175 15.058L41.0819 0Z" fill="#0090BA"/>
<path d="M41.082 34.0632L14.3276 24.2682L18.275 41.519L41.082 49.8521L63.8891 41.519L67.6902 24.2682L41.082 34.0632Z" fill="#ffffff"/>
</svg>
