<svg width="300" height="47" viewBox="0 0 300 47" fill="none" xmlns="http://www.w3.org/2000/svg">
<g clip-path="url(#clip0)">
<path d="M22.3465 29.5874C22.9195 27.7903 23.4925 25.9291 24.1292 24.132C26.1665 17.6497 28.2675 11.2316 30.3049 4.74938C30.6232 3.6583 31.0052 2.56723 31.3236 1.47615C31.3872 1.15525 31.5782 1.09106 31.8329 1.09106C35.9076 1.09106 39.9823 1.09106 44.057 1.09106C44.5027 1.09106 44.5663 1.21943 44.5663 1.60451C44.5663 4.87774 44.5663 8.08678 44.5663 11.36C44.5663 22.3349 44.5663 33.2457 44.5663 44.2206C44.5663 44.7341 44.439 44.8624 43.9297 44.8624C41.383 44.8624 38.9 44.8624 36.3533 44.8624C35.9076 44.8624 35.7803 44.7341 35.7803 44.2848C35.7803 33.3741 35.7803 22.5275 35.7803 11.6167C35.7803 11.5526 35.7803 11.5525 35.6529 11.4242C35.4619 12.066 35.2709 12.7078 35.0163 13.3496C31.8329 23.6827 28.6495 34.0159 25.4662 44.349C25.3388 44.6699 25.2752 44.7983 24.8932 44.7983C22.9832 44.7983 21.0095 44.7983 19.0995 44.7983C18.7811 44.7983 18.6538 44.6699 18.5264 44.349C15.2794 33.5024 12.0961 22.6558 8.84903 11.7451C8.78536 11.6167 8.84903 11.4884 8.65803 11.36C8.65803 11.6167 8.65803 11.8093 8.65803 12.0018C8.65803 22.72 8.65803 33.4382 8.65803 44.0923C8.65803 44.6057 8.53069 44.7341 8.02135 44.7341C5.47466 44.7341 2.92798 44.7341 0.381286 44.7341C-0.000717314 44.7341 -0.128052 44.6699 -0.128052 44.2848C-0.000717304 30.165 -0.000717304 15.8527 -0.000717304 1.60451C-0.000717304 1.15525 0.190284 1.09106 0.508621 1.09106C4.51966 1.09106 8.53069 1.09106 12.6054 1.09106C13.0511 1.09106 13.2421 1.28361 13.3694 1.66869C15.1521 7.31661 16.9348 12.9003 18.7174 18.5483C19.8635 22.2066 21.0731 25.8649 22.2191 29.5874C22.2828 29.5874 22.3465 29.5874 22.3465 29.5874Z" fill="#3A4052"/>
<path d="M90.9168 13.8631C90.9168 14.0556 90.9168 14.2482 90.9168 14.4407C90.9168 24.3888 90.9168 34.3368 90.9168 44.2848C90.9168 44.7341 90.8531 44.9266 90.3438 44.8625C87.7971 44.8625 85.2504 44.8625 82.7037 44.8625C82.3217 44.8625 82.2581 44.7983 82.2581 44.4132C82.2581 30.165 82.2581 15.8527 82.2581 1.60454C82.2581 1.21945 82.3854 1.15527 82.7674 1.15527C86.3964 1.15527 90.0255 1.15527 93.6545 1.15527C94.0365 1.15527 94.1638 1.28364 94.3548 1.60454C99.7665 11.4242 105.178 21.2439 110.59 31.1278C110.654 31.2561 110.717 31.3845 110.908 31.5128C110.908 31.3203 110.908 31.1278 110.908 30.9352C110.908 21.2439 110.908 11.5526 110.908 1.86126C110.908 1.34782 111.036 1.21945 111.545 1.21945C114.092 1.21945 116.638 1.21945 119.185 1.21945C119.631 1.21945 119.694 1.34782 119.694 1.7329C119.694 15.9811 119.694 30.2292 119.694 44.4774C119.694 44.8625 119.631 44.9908 119.249 44.9908C115.747 44.9908 112.245 44.9908 108.68 44.9908C108.362 44.9908 108.234 44.9266 108.107 44.6699C102.568 34.6577 97.0289 24.5813 91.4898 14.5691C91.3625 14.3765 91.2351 14.184 91.1715 13.9915C90.9805 13.8631 90.9805 13.8631 90.9168 13.8631Z" fill="#3A4052"/>
<path d="M201.57 23.0409C201.57 27.8545 200.552 32.4755 198.005 36.5831C194.822 41.5892 190.238 44.5415 184.508 45.5684C180.369 46.3386 176.295 46.0177 172.347 44.5415C166.744 42.3594 162.861 38.4443 160.823 32.7964C158.277 25.8649 158.34 18.8691 161.333 12.066C164.134 5.45533 169.291 1.5403 176.358 0.385043C180.751 -0.385128 185.017 0.0641385 189.092 1.8612C194.44 4.17172 198.005 8.27929 199.979 13.7347C201.125 16.687 201.57 19.8319 201.57 23.0409ZM192.53 23.0409C192.53 21.5006 192.339 19.9602 191.957 18.4841C190.492 12.8361 186.418 9.30619 180.942 8.98528C176.167 8.72856 172.474 10.7182 169.991 14.9541C168.782 17.0079 168.272 19.3184 168.081 21.6931C167.89 25.0947 168.4 28.3037 170.119 31.2561C174.257 38.5085 184.699 39.0861 189.665 32.4113C191.766 29.6515 192.466 26.4425 192.53 23.0409Z" fill="#3A4052"/>
<path d="M121.732 23.041C121.732 15.9169 121.732 8.85698 121.732 1.7329C121.732 1.28364 121.795 1.15527 122.305 1.15527C126.57 1.15527 130.836 1.15527 135.165 1.15527C139.113 1.21945 142.933 1.7329 146.562 3.33742C152.483 5.90466 156.112 10.3973 157.513 16.687C158.531 21.3723 158.595 26.0575 157.067 30.6785C155.03 37.0324 150.7 41.14 144.588 43.4505C141.914 44.4132 139.113 44.9266 136.311 44.9266C131.664 44.9266 127.016 44.9266 122.368 44.9266C121.923 44.9266 121.859 44.7983 121.859 44.4132C121.732 37.2249 121.732 30.1009 121.732 23.041ZM130.518 22.9768C130.518 27.1485 130.518 31.3203 130.518 35.4921C130.518 35.8771 130.581 36.0055 130.963 36.0055C132.364 36.0055 133.701 36.0055 135.102 36.0055C136.948 36.0055 138.731 35.813 140.514 35.2995C143.824 34.401 146.371 32.5397 147.835 29.3949C148.727 27.4694 149.045 25.4157 149.109 23.2977C149.172 20.3454 148.663 17.5214 146.817 15.0825C144.588 12.066 141.469 10.7182 137.903 10.269C135.611 10.0122 133.319 10.2048 131.027 10.1406C130.581 10.1406 130.518 10.269 130.518 10.654C130.518 14.7616 130.518 18.8692 130.518 22.9768Z" fill="#3A4052"/>
<path d="M239.707 22.9768C239.707 15.9169 239.707 8.85698 239.707 1.79708C239.707 1.28364 239.835 1.15527 240.344 1.15527C248.875 1.15527 257.47 1.15527 266.002 1.15527C266.447 1.15527 266.575 1.21945 266.575 1.7329C266.575 4.36432 266.575 6.93155 266.575 9.56297C266.575 10.0122 266.447 10.1406 266.002 10.1406C260.335 10.1406 254.733 10.1406 249.066 10.1406C248.557 10.1406 248.366 10.269 248.366 10.7824C248.43 13.0929 248.366 15.3393 248.366 17.6498C248.366 18.1632 248.557 18.2916 249.003 18.2916C254.223 18.2916 259.508 18.2916 264.728 18.2916C265.492 18.2916 265.492 18.2916 265.492 19.0617C265.492 21.5648 265.492 24.0679 265.492 26.5709C265.492 27.0844 265.365 27.2127 264.856 27.2127C259.571 27.2127 254.287 27.2127 249.003 27.2127C248.493 27.2127 248.366 27.3411 248.366 27.8545C248.366 30.4218 248.366 32.9248 248.366 35.4921C248.366 35.9413 248.493 36.1339 248.939 36.1339C254.924 36.1339 260.845 36.1339 266.829 36.1339C267.275 36.1339 267.466 36.198 267.466 36.7757C267.466 39.3429 267.466 41.9101 267.466 44.4774C267.466 44.9908 267.275 45.1192 266.829 45.1192C257.98 45.1192 249.13 45.1192 240.28 45.1192C239.707 45.1192 239.58 44.9266 239.58 44.4132C239.707 37.0966 239.707 30.0367 239.707 22.9768Z" fill="#429CD0"/>
<path d="M80.0297 15.275C80.0297 19.7035 80.0934 24.1962 80.0297 28.6246C80.0297 31.577 79.4567 34.5293 78.1834 37.2249C76.0187 41.8459 72.4533 44.6057 67.5509 45.5684C63.6672 46.3386 59.7835 46.146 56.0272 44.5415C51.3795 42.4877 48.7054 38.7652 47.4957 33.8875C46.9864 31.9621 46.7954 30.0366 46.7954 28.047C46.7954 19.2542 46.7954 10.5256 46.7954 1.73285C46.7954 1.2194 46.9227 1.09104 47.4321 1.09104C49.9151 1.09104 52.3981 1.09104 54.8811 1.09104C55.3905 1.09104 55.5815 1.15522 55.5815 1.73285C55.5815 10.4615 55.5178 19.1901 55.5815 27.8545C55.5815 30.6784 56.5365 33.2457 58.7012 35.1711C62.2029 38.316 67.4873 37.3532 69.9703 33.1815C71.0526 31.3844 71.4346 29.3948 71.4346 27.341C71.4346 18.805 71.4346 10.2689 71.4346 1.66867C71.4346 1.09104 71.562 0.96268 72.135 1.02686C74.618 1.02686 77.1647 1.02686 79.6477 1.02686C80.0934 1.02686 80.157 1.15522 80.157 1.54031C80.0297 6.16133 80.0297 10.7182 80.0297 15.275Z" fill="#3A4052"/>
<path d="M281.855 13.478C281.791 15.4034 282.937 16.5586 284.529 17.393C286.12 18.2273 287.903 18.7408 289.622 19.3184C291.405 19.8961 293.124 20.5379 294.716 21.5006C297.517 23.1693 299.236 25.6081 299.745 28.8814C300.191 31.7695 300 34.6577 298.981 37.4174C297.644 41.0116 295.098 43.3863 291.596 44.7982C289.686 45.5684 287.648 45.9535 285.547 46.0177C282.364 46.146 279.372 45.6326 276.507 44.2206C274.724 43.3863 273.132 42.1668 271.732 40.819C271.541 40.6265 271.541 40.4981 271.732 40.2414C273.642 37.9309 275.552 35.5562 277.462 33.2457C277.716 32.9248 277.844 33.2457 277.971 33.374C278.926 34.5935 280.072 35.5562 281.409 36.198C283.892 37.3533 286.439 37.4816 288.922 36.198C291.723 34.7218 292.041 31.1919 289.558 29.2023C288.03 27.9828 286.12 27.4052 284.338 26.7634C282.109 25.9291 279.817 25.2231 277.78 23.8753C274.788 22.014 273.132 19.2542 272.878 15.7243C272.623 12.4511 273.132 9.3062 274.979 6.48224C276.952 3.40156 279.817 1.54031 283.319 0.641782C288.603 -0.641835 293.569 -0.0642073 298.154 3.08066C298.727 3.46574 299.172 3.85083 299.682 4.30009C299.936 4.49264 299.936 4.68518 299.745 4.9419C297.963 7.12405 296.116 9.3062 294.333 11.4884C294.079 11.8093 293.888 11.7451 293.633 11.4884C291.214 8.85694 286.63 8.21513 283.701 10.1406C282.491 10.8465 281.791 11.9376 281.855 13.478Z" fill="#E4D146"/>
<path d="M223.727 27.3411C223.727 32.989 223.727 38.6369 223.727 44.2848C223.727 44.7983 223.599 44.9266 223.09 44.9266C220.607 44.9266 218.06 44.9266 215.577 44.9266C215.068 44.9266 215.004 44.7983 215.004 44.2848C215.004 32.989 215.004 21.6932 215.004 10.3973C215.004 9.69133 215.004 9.69133 214.304 9.69133C210.993 9.69133 207.619 9.69133 204.308 9.69133C203.862 9.69133 203.735 9.62715 203.735 9.17789C203.735 6.67483 203.735 4.17178 203.735 1.66872C203.735 1.21945 203.862 1.15527 204.308 1.15527C214.368 1.15527 224.363 1.15527 234.423 1.15527C234.868 1.15527 234.996 1.28364 234.996 1.66872C234.996 4.17178 234.996 6.61065 234.996 9.1137C234.996 9.56297 234.868 9.69133 234.423 9.69133C231.048 9.69133 227.674 9.69133 224.3 9.69133C223.79 9.69133 223.663 9.81969 223.727 10.3331C223.727 15.9811 223.727 21.629 223.727 27.3411Z" fill="#BF2B71"/>
</g>
<defs>
<clipPath id="clip0">
<rect width="300" height="46.0177" fill="white"/>
</clipPath>
</defs>
</svg>
